<?xml version="1.0" encoding="utf-8"?>
<?xml-stylesheet type="text/xsl" href="rss1.xsl"?>
<rss version="2.0" xmlns:atom="http://www.w3.org/2005/Atom" xmlns:content="http://purl.org/rss/1.0/modules/content/" xmlns:dc="http://purl.org/dc/elements/1.1/" xmlns:media="http://search.yahoo.com/mrss/">
<channel>
 <title>Getty</title>
 <link>http://www.gettyimg.com/</link>
 <atom:link href="http://www.gettyimg.com/" rel="self" type="application/rss+xml" />

 
                <item>
                <title><![CDATA[【Off-Topic】Question about iPhone color KSOSKOSKOSKOS]]></title>
                <link><![CDATA[https://sharemania.us/threads/question-about-iphone-color-ksoskoskoskos.251268/]]></link>
                <description><![CDATA[<article>
<blockquote class="messageText SelectQuoteContainer ugc baseHtml">
Hello!!<br>
<br>
Does anyone know if one day Apple will release a really pink iPhone?<br>
Waiting for my color to be released so I can finally have an iPhone. <img src="styles/default/xenforo/clear.png" class="mceSmilieSprite mceSmilie34" alt=":astonished:" title="Astonished    :astonished:"><img src="styles/default/xenforo/clear.png" class="mceSmilieSprite mceSmilie77" alt=":smile:" title="Smile    :smile:"><br>
<br>
<span style="font-size: 18px"><b><span style="color: rgb(245,56,164)">HOT PINK</span></b><br>
<b><span style="color: rgb(255,0,255)">MAGENTA</span></b></span><br>
<br>
<img src="https://i.ytimg.com/vi/-M8b6p-B9C8/maxresdefault.jpg" class="bbCodeImage LbImage" alt="[​IMG]" data-url="https://i.ytimg.com/vi/-M8b6p-B9C8/maxresdefault.jpg" style="">
<div class="messageTextEndMarker">&nbsp;</div>
</blockquote>
</article>]]></description>
                <author><![CDATA[SCANDAL]]></author>
                </item>

                
                <item>
                <title><![CDATA[【Requests】[REQ VID] - La Oreja de Van Gogh (2002 DVD)]]></title>
                <link><![CDATA[https://sharemania.us/threads/la-oreja-de-van-gogh-2002-dvd.251272/]]></link>
                <description><![CDATA[<article>
<blockquote class="messageText SelectQuoteContainer ugc baseHtml">
Hola a todos.<br>
Alguien tendrá de casualidad este DVD? Cualquier aporte en iso o en formato VIDEO_TS se agradece.<br>
<br>
Hello everyone.<br>
Does someone have this DVD? It doesn't matter if it's in iso or VIDEO_TS format.<br>
<br>
<img src="https://m.media-amazon.com/images/I/71Jbehc+4OL._SL1236_.jpg" class="bbCodeImage LbImage" alt="[​IMG]" data-url="https://m.media-amazon.com/images/I/71Jbehc+4OL._SL1236_.jpg" style=""> <br>
<br>
<img src="https://m.media-amazon.com/images/I/714NS-+uzaL._SL1230_.jpg" class="bbCodeImage LbImage" alt="[​IMG]" data-url="https://m.media-amazon.com/images/I/714NS-+uzaL._SL1230_.jpg" style="">
<div class="messageTextEndMarker">&nbsp;</div>
</blockquote>
</article>]]></description>
                <author><![CDATA[juanignacio463]]></author>
                </item>

                
                <item>
                <title><![CDATA[【Apple Music】WEB-RiP - Pitbull - Hey Baby (Drop It To The Floor) ft. T-Pain (1080p)]]></title>
                <link><![CDATA[https://sharemania.us/threads/pitbull-hey-baby-drop-it-to-the-floor-ft-t-pain-1080p.251274/]]></link>
                <description><![CDATA[<article>
<blockquote class="messageText SelectQuoteContainer ugc baseHtml">
<img src="https://i.postimg.cc/tR2Dkc21/Pitbull-Hey-Baby-Drop-It-To-The-Floor-ft-T-Pain-mp4.jpg" class="bbCodeImage LbImage" alt="[​IMG]" data-url="https://i.postimg.cc/tR2Dkc21/Pitbull-Hey-Baby-Drop-It-To-The-Floor-ft-T-Pain-mp4.jpg" style=""><br>
<br>
<div class="bbCodeBlock bbCodeCode">
<div class="type">Code:</div>
<pre>General
Complete name                  : G:\Новая папка\Pitbull - Hey Baby (Drop It To The Floor) ft. T-Pain.mp4
Format                         : MPEG-4
Format profile                 : Base Media
Codec ID                       : isom (isom/iso2/avc1/mp41)
File size                      : 166 MiB
Duration                       : 3 min 26 s
Overall bit rate               : 6 752 kb/s
Frame rate                     : 23.976 FPS
Movie name                     : Hey Baby (Drop It to the Floor)
Performer                      : Pitbull
Genre                          : Pop
ContentType                    : Music Video
Recorded date                  : 2010-11-09 08:00:00 UTC
Writing application            : Lavf56.30.100
Copyright                      : ℗ (C) 2010 J Records, a unit of Sony Music Entertainment

Video
ID                             : 1
Format                         : AVC
Format/Info                    : Advanced Video Codec
Format profile                 : High@L4
Format settings                : CABAC / 5 Ref Frames
Format settings, CABAC         : Yes
Format settings, Reference fra : 5 frames
Format settings, Slice count   : 8 slices per frame
Codec ID                       : avc1
Codec ID/Info                  : Advanced Video Coding
Duration                       : 3 min 26 s
Bit rate                       : 6 491 kb/s
Width                          : 1 920 pixels
Height                         : 822 pixels
Display aspect ratio           : 2.35:1
Frame rate mode                : Constant
Frame rate                     : 23.976 (24000/1001) FPS
Color space                    : YUV
Chroma subsampling             : 4:2:0
Bit depth                      : 8 bits
Scan type                      : Progressive
Bits/(Pixel*Frame)             : 0.172
Stream size                    : 160 MiB (96%)
Color range                    : Limited
Color primaries                : BT.709
Transfer characteristics       : BT.709
Matrix coefficients            : BT.709
Codec configuration box        : avcC

Audio
ID                             : 2
Format                         : AAC LC
Format/Info                    : Advanced Audio Codec Low Complexity
Codec ID                       : mp4a-40-2
Duration                       : 3 min 26 s
Duration_LastFrame             : -21 ms
Bit rate mode                  : Constant
Bit rate                       : 258 kb/s
Channel(s)                     : 2 channels
Channel layout                 : L R
Sampling rate                  : 48.0 kHz
Frame rate                     : 46.875 FPS (1024 SPF)
Compression mode               : Lossy
Stream size                    : 6.34 MiB (4%)
Default                        : Yes
Alternate group                : 1

</pre>
</div>
<div class="bbCodeBlock bbCodeVfcHH HiddenContent">
<div class="attribution type">Hidden Content:</div>
<blockquote>You must either reply or click 'Like' to see the hidden information contained here.</blockquote>
</div>
<div class="messageTextEndMarker">&nbsp;</div>
</blockquote>
</article>]]></description>
                <author><![CDATA[vitalya3]]></author>
                </item>

                
                <item>
                <title><![CDATA[【Cinema Center】MOVIE - Bad.Boys.1983.1080p.AMZN.WEB-DL.DDP2.0.H.264-Samuel]]></title>
                <link><![CDATA[https://sharemania.us/threads/bad-boys-1983-1080p-amzn-web-dl-ddp2-0-h-264-samuel.251269/]]></link>
                <description><![CDATA[<article>
<blockquote class="messageText SelectQuoteContainer ugc baseHtml">
<div style="text-align: center"><b><span style="font-size: 26px">Bad Boys</span></b><br>
<img src="https://i.imgur.com/zI9rkNB.jpeg" class="bbCodeImage LbImage" alt="[​IMG]" data-url="https://i.imgur.com/zI9rkNB.jpeg" style=""><br>
<b><a href="https://i.imgur.com/rkV61oG.jpeg" target="_blank" class="externalLink" rel="nofollow">Alternate Artwork</a></b> | <b><a href="https://i.imgur.com/a9Qkpn8.jpeg" target="_blank" class="externalLink" rel="nofollow">Poster 1</a></b> | <b><a href="https://i.imgur.com/33Ihl7Z.jpeg" target="_blank" class="externalLink" rel="nofollow">Poster 2</a></b> | <b><a href="https://i.imgur.com/bt8HRfy.jpeg" target="_blank" class="externalLink" rel="nofollow">Thumbnail 1</a></b> | <b><a href="https://i.imgur.com/6kmIyZZ.jpeg" target="_blank" class="externalLink" rel="nofollow">Thumbnail 2</a></b><br>
<br>
2,255 • IMDb 7.2 • 2 h 3 min • 1983 <img src="https://i.imgur.com/5PbGPCy.png" class="bbCodeImage LbImage" alt="[​IMG]" data-url="https://i.imgur.com/5PbGPCy.png" style=""> <img src="https://i.imgur.com/IdlNU60.png" class="bbCodeImage LbImage" alt="[​IMG]" data-url="https://i.imgur.com/IdlNU60.png" style=""> <img src="https://i.imgur.com/3sGrwe8.png" class="bbCodeImage LbImage" alt="[​IMG]" data-url="https://i.imgur.com/3sGrwe8.png" style=""><br>
<br>
<div class="bbCodeBlock bbCodeQuote">
<aside>
<blockquote class="quoteContainer"><div class="quote"><b><span style="font-size: 15px"><span style="font-family: 'Arial'">Description</span></span></b><br>
Academy Award winner Sean Penn's breakthrough dramatic performance.</div><div class="quoteExpand">Click to expand...</div></blockquote>
</aside>
</div>
<div class="bbCodeBlock bbCodeQuote">
<aside>
<blockquote class="quoteContainer"><div class="quote"><span style="font-family: 'Arial'"><span style="font-size: 15px"><b>Trailers</b></span></span><br>
<span data-s9e-mediaembed="googledrive" style="display:inline-block;width:100%;max-width:640px"><span style="display:block;overflow:hidden;position:relative;padding-bottom:75%"><iframe allowfullscreen="" loading="lazy" scrolling="no" src="//drive.google.com/file/d/1q2T-GHWjY7bQfr8sJ219l2Nmqf86zFm2/preview" style="border:0;height:100%;left:0;position:absolute;width:100%"></iframe></span></span></div><div class="quoteExpand quoteCut">Click to expand...</div></blockquote>
</aside>
</div>
<div class="bbCodeBlock bbCodeQuote">
<aside>
<blockquote class="quoteContainer"><div class="quote"><span style="font-family: 'Arial'"><span style="font-size: 15px"><b>Details</b></span></span><br>
<b>Genres:</b> Young Adult Audience • Suspense • Bleak • Emotional</div><div class="quoteExpand">Click to expand...</div></blockquote>
</aside>
</div>
<div class="bbCodeBlock bbCodeQuote">
<aside>
<blockquote class="quoteContainer"><div class="quote"><b><span style="font-size: 15px"><span style="font-family: 'Arial'">More Details</span></span></b><br>
<b>Content advisory:</b> Violence, substance use, smoking, foul language<br>
<b>Audio languages:</b> English<br>
<b>Subtitles:</b> English [CC]<br>
<b>Directors:</b> Rick Rosenthal<br>
<b>Producers:</b> Robert Solo<br>
<b>Starring:</b> Sean Penn, Reni Santoni, Jim Moody<br>
<b>Studio:</b> Lionsgate</div><div class="quoteExpand">Click to expand...</div></blockquote>
</aside>
</div>
<div class="bbCodeBlock bbCodeQuote">
<aside>
<blockquote class="quoteContainer"><div class="quote"><b><span style="font-size: 15px"><span style="font-family: 'Arial'">Source</span></span></b><br>
<img src="https://i.imgur.com/UquWuUD.png" class="bbCodeImage LbImage" alt="[​IMG]" data-url="https://i.imgur.com/UquWuUD.png" style=""></div><div class="quoteExpand">Click to expand...</div></blockquote>
</aside>
</div>
<div class="bbCodeBlock bbCodeQuote">
<aside>
<blockquote class="quoteContainer"><div class="quote"><b><span style="font-size: 15px">Release Name</span></b><br>
Bad.Boys.1983.1080p.AMZN.WEB-DL.DDP2.0.H.264-Samuel</div><div class="quoteExpand">Click to expand...</div></blockquote>
</aside>
</div>
<div class="ToggleTriggerAnchor bbCodeSpoilerContainer">
<button type="button" class="button bbCodeSpoilerButton ToggleTrigger Tooltip JsOnly" data-target="> .SpoilerTarget"><span>Spoiler: <span class="SpoilerTitle">Media Information</span></span></button>
<div class="SpoilerTarget bbCodeSpoilerText">General<br>
Complete name : Bad.Boys.1983.1080p.AMZN.WEB-DL.DDP2.0.H.264-Samuel.mkv<br>
Format : Matroska<br>
Format version : Version 4<br>
File size : 8.32 GiB<br>
Duration : 2 h 3 min<br>
Overall bit rate : 9 632 kb/s<br>
Frame rate : 23.976 FPS<br>
Encoded date : 2024-07-28 11:43:28 UTC<br>
Writing application : mkvmerge v86.0 ('Winter') 64-bit<br>
Writing library : libebml v1.4.5 + libmatroska v1.7.1<br>
<br>
Video<br>
ID : 1<br>
Format : AVC<br>
Format/Info : Advanced Video Codec<br>
Format profile : High@L4<br>
Format settings : CABAC / 4 Ref Frames<br>
Format settings, CABAC : Yes<br>
Format settings, Reference frames : 4 frames<br>
Codec ID : V_MPEG4/ISO/AVC<br>
Duration : 2 h 3 min<br>
Bit rate mode : Constant<br>
Bit rate : 9 406 kb/s<br>
Nominal bit rate : 10 000 kb/s<br>
Width : 1 920 pixels<br>
Height : 1 040 pixels<br>
Display aspect ratio : 1.85:1<br>
Frame rate mode : Constant<br>
Frame rate : 23.976 (24000/1001) FPS<br>
Color space : YUV<br>
Chroma subsampling : 4:2:0<br>
Bit depth : 8 bits<br>
Scan type : Progressive<br>
Bits/(Pixel*Frame) : 0.196<br>
Stream size : 8.12 GiB (98%)<br>
Default : Yes<br>
Forced : No<br>
Color range : Limited<br>
Color primaries : BT.709<br>
Transfer characteristics : BT.709<br>
Matrix coefficients : BT.709<br>
<br>
Audio<br>
ID : 2<br>
Format : E-AC-3<br>
Format/Info : Enhanced AC-3<br>
Commercial name : Dolby Digital Plus<br>
Codec ID : A_EAC3<br>
Duration : 2 h 3 min<br>
Bit rate mode : Constant<br>
Bit rate : 224 kb/s<br>
Channel(s) : 2 channels<br>
Channel layout : L R<br>
Sampling rate : 48.0 kHz<br>
Frame rate : 31.250 FPS (1536 SPF)<br>
Compression mode : Lossy<br>
Stream size : 198 MiB (2%)<br>
Language : English<br>
Service kind : Complete Main<br>
Default : Yes<br>
Forced : No<br>
Dialog Normalization : -31 dB<br>
compr : -0.28 dB<br>
dsurmod : Not Dolby Surround encoded<br>
dialnorm_Average : -31 dB<br>
dialnorm_Minimum : -31 dB<br>
dialnorm_Maximum : -31 dB<br>
<br>
Text<br>
ID : 3<br>
Format : UTF-8<br>
Codec ID : S_TEXT/UTF8<br>
Codec ID/Info : UTF-8 Plain Text<br>
Duration : 1 h 59 min<br>
Bit rate : 35 b/s<br>
Frame rate : 0.191 FPS<br>
Count of elements : 1374<br>
Stream size : 31.2 KiB (0%)<br>
Title : SDH<br>
Language : English<br>
Default : No<br>
Forced : No<br>
<br>
Menu<br>
00:00:00.000 : en:1. Studio Logos<br>
00:00:29.000 : en:2. Opening Credits<br>
00:02:42.000 : en:3. Mick and Paco make mischief on the mean streets of chicago<br>
00:10:49.000 : en:4. Paco harasses Mick's girl<br>
00:12:00.000 : en:5. J.C. tells Mick about her forboding dream<br>
00:14:44.000 : en:6. Mick and Carl plan a robbery<br>
00:20:48.000 : en:7. Mick tries to out run the police<br>
00:21:47.000 : en:8. Mick is sentenced for his crimes<br>
00:22:56.000 : en:9. Mick gets aquainted to his new life<br>
00:29:14.000 : en:10. Paco vows revenge<br>
00:30:15.000 : en:11. Viking lets Mick know who is in charge<br>
00:34:34.000 : en:12. Viking and Tweety pick on inmates and Perretti barters with Mick<br>
00:37:12.000 : en:13. Terrell feels a target on his back<br>
00:37:51.000 : en:14. J.C.'s father encourages her to forget about Mick<br>
00:38:50.000 : en:15. Mick talks to the counselor about the accident<br>
00:40:52.000 : en:16. Mick receives a letter from J.C.<br>
00:41:39.000 : en:17. Paco exacts some revenge<br>
00:42:35.000 : en:18. Terrell fights back<br>
00:44:41.000 : en:19. Warden Bendix investigates what happened<br>
00:47:55.000 : en:20. Viking and Tweety try to intimidate Mick<br>
00:51:43.000 : en:21. Paco waits for J.C.<br>
00:52:21.000 : en:22. Mick moves up the ranks<br>
00:55:22.000 : en:23. Mr. Daniels gives the boys a reading assignment<br>
00:57:32.000 : en:24. Horowitz and Viking have a brawl<br>
00:59:39.000 : en:25. Paco tails J.C.<br>
01:05:23.000 : en:26. Mick learns what has happened to J.C.<br>
01:07:01.000 : en:27. J.C. Identifies her attacker<br>
01:08:01.000 : en:28. Mick and Horowitz plan to escape<br>
01:09:54.000 : en:29. Tweety has parting words for Mick before he leaves<br>
01:11:45.000 : en:30. Mick and Horowitz make a run for it<br>
01:15:41.000 : en:31. Mick finds J.C. and comforts her<br>
01:18:12.000 : en:32. Mick gets one last chance<br>
01:20:20.000 : en:33. Mick visits Horowitz<br>
01:20:51.000 : en:34. A Person from Mick's past arrives<br>
01:25:39.000 : en:35. Mick warns Paco to stand down<br>
01:26:55.000 : en:36. Mick Tries to keep the peace<br>
01:28:36.000 : en:37. Paco and Viking talk about revenge<br>
01:30:05.000 : en:38. Mr. Daniels congratulates the boys on a job well done<br>
01:32:14.000 : en:39. Paco continues to goad Mick to no avail<br>
01:36:23.000 : en:40. Perretti plots with Paco but Horowitz has some plans of his own<br>
01:38:19.000 : en:41. Wagner and Herrera search Mick and Paco's cells<br>
01:41:44.000 : en:42. Viking gets a surprise gift<br>
01:44:48.000 : en:43. The warden takes drastic action with Horowitz<br>
01:45:53.000 : en:44. Paco's transfer comes through<br>
01:48:33.000 : en:45. Mick and Paco battle<br>
01:58:26.000 : en:46. End Credits</div>
</div><br>
<b>Screenshots</b><br>
<img src="https://i.imgur.com/9OSHQ10.png" class="bbCodeImage LbImage" alt="[​IMG]" data-url="https://i.imgur.com/9OSHQ10.png" style=""><br>
<br>
<b>Download</b><br>
<div class="bbCodeBlock bbCodeVfcHH HiddenContent">
<div class="attribution type">Hidden Content:</div>
<blockquote>You must reply before you can see the hidden data contained here.</blockquote>
</div></div>
<div class="messageTextEndMarker">&nbsp;</div>
</blockquote>
</article>]]></description>
                <author><![CDATA[Samuel]]></author>
                </item>

                
                <item>
                <title><![CDATA[【Apple Music】WEB-RiP - Mabel - Female Intuition (1080p)]]></title>
                <link><![CDATA[https://sharemania.us/threads/mabel-female-intuition-1080p.251271/]]></link>
                <description><![CDATA[<article>
<blockquote class="messageText SelectQuoteContainer ugc baseHtml">
<a href="https://sharemania.us/members/120286/" class="username" data-user="120286, @Charlesvenenoss">@Charlesvenenoss</a> Request Completed.
<div class="messageTextEndMarker">&nbsp;</div>
</blockquote>
</article>]]></description>
                <author><![CDATA[vitalya3]]></author>
                </item>

                
                <item>
                <title><![CDATA[【Apple Music】WEB-RiP - Samantha Jade - What You've Done To Me (1080p)]]></title>
                <link><![CDATA[https://sharemania.us/threads/samantha-jade-what-youve-done-to-me-1080p.251270/]]></link>
                <description><![CDATA[<article>
<blockquote class="messageText SelectQuoteContainer ugc baseHtml">
<img src="https://i.postimg.cc/3JY0crf9/Mabel-Female-Intuition-mp4.jpg" class="bbCodeImage LbImage" alt="[​IMG]" data-url="https://i.postimg.cc/3JY0crf9/Mabel-Female-Intuition-mp4.jpg" style=""><br>
<br>
<div class="bbCodeBlock bbCodeCode">
<div class="type">Code:</div>
<pre>General
Complete name                  : G:\Новая папка\Mabel - Female Intuition.mp4
Format                         : MPEG-4
Format profile                 : Base Media
Codec ID                       : isom (isom/iso2/avc1/mp41)
File size                      : 149 MiB
Duration                       : 3 min 1 s
Overall bit rate               : 6 919 kb/s
Frame rate                     : 25.000 FPS
Movie name                     : Female Intuition
Performer                      : Mabel
Genre                          : R&amp;B/Soul
ContentType                    : Music Video
Recorded date                  : 2024-07-19 07:00:00 UTC
Writing application            : Lavf56.30.100
Copyright                      : ℗ A Polydor Records Recording; © 2024 Mabel McVey, under exclusive licence to Universal Music Operations Limited

Video
ID                             : 1
Format                         : AVC
Format/Info                    : Advanced Video Codec
Format profile                 : High@L3.2
Format settings                : CABAC / 4 Ref Frames
Format settings, CABAC         : Yes
Format settings, Reference fra : 4 frames
Format settings, Slice count   : 8 slices per frame
Codec ID                       : avc1
Codec ID/Info                  : Advanced Video Coding
Duration                       : 3 min 1 s
Bit rate                       : 6 661 kb/s
Width                          : 1 080 pixels
Height                         : 1 080 pixels
Display aspect ratio           : 1.000
Frame rate mode                : Constant
Frame rate                     : 25.000 FPS
Color space                    : YUV
Chroma subsampling             : 4:2:0
Bit depth                      : 8 bits
Scan type                      : Progressive
Bits/(Pixel*Frame)             : 0.228
Stream size                    : 144 MiB (96%)
Color range                    : Limited
Color primaries                : BT.709
Transfer characteristics       : BT.709
Matrix coefficients            : BT.709
Codec configuration box        : avcC

Audio
ID                             : 2
Format                         : AAC LC
Format/Info                    : Advanced Audio Codec Low Complexity
Codec ID                       : mp4a-40-2
Duration                       : 3 min 1 s
Duration_LastFrame             : -13 ms
Bit rate mode                  : Constant
Bit rate                       : 253 kb/s
Channel(s)                     : 2 channels
Channel layout                 : L R
Sampling rate                  : 48.0 kHz
Frame rate                     : 46.875 FPS (1024 SPF)
Compression mode               : Lossy
Stream size                    : 5.47 MiB (4%)
Default                        : Yes
Alternate group                : 1

</pre>
</div>
<div class="bbCodeBlock bbCodeVfcHH HiddenContent">
<div class="attribution type">Hidden Content:</div>
<blockquote>You must either reply or click 'Like' to see the hidden information contained here.</blockquote>
</div>
<div class="messageTextEndMarker">&nbsp;</div>
</blockquote>
</article>]]></description>
                <author><![CDATA[vitalya3]]></author>
                </item>

                
                <item>
                <title><![CDATA[【Apple Music】WEB-RiP - Julia Michaels - Little Did I Know (1080p)]]></title>
                <link><![CDATA[https://sharemania.us/threads/julia-michaels-little-did-i-know-1080p.251273/]]></link>
                <description><![CDATA[<article>
<blockquote class="messageText SelectQuoteContainer ugc baseHtml">
<img src="https://i.postimg.cc/NMchYnH8/Samantha-Jade-What-You-ve-Done-To-Me-mp4.jpg" class="bbCodeImage LbImage" alt="[​IMG]" data-url="https://i.postimg.cc/NMchYnH8/Samantha-Jade-What-You-ve-Done-To-Me-mp4.jpg" style=""><br>
<br>
<div class="bbCodeBlock bbCodeCode">
<div class="type">Code:</div>
<pre>General
Complete name                  : G:\Новая папка\Samantha Jade - What You've Done To Me.mp4
Format                         : MPEG-4
Format profile                 : Base Media
Codec ID                       : isom (isom/iso2/avc1/mp41)
File size                      : 176 MiB
Duration                       : 3 min 37 s
Overall bit rate               : 6 784 kb/s
Frame rate                     : 25.000 FPS
Movie name                     : What You've Done To Me
Performer                      : Samantha Jade
Genre                          : Pop
ContentType                    : Music Video
Recorded date                  : 2012-12-17 08:00:00 UTC
Writing application            : Lavf56.30.100
Copyright                      : ℗ (C) 2012 Sony Music Entertainment Australia Pty Ltd.

Video
ID                             : 1
Format                         : AVC
Format/Info                    : Advanced Video Codec
Format profile                 : High@L4
Format settings                : CABAC / 5 Ref Frames
Format settings, CABAC         : Yes
Format settings, Reference fra : 5 frames
Format settings, Slice count   : 8 slices per frame
Codec ID                       : avc1
Codec ID/Info                  : Advanced Video Coding
Duration                       : 3 min 37 s
Bit rate                       : 6 532 kb/s
Width                          : 1 920 pixels
Height                         : 810 pixels
Display aspect ratio           : 2.39:1
Frame rate mode                : Constant
Frame rate                     : 25.000 FPS
Color space                    : YUV
Chroma subsampling             : 4:2:0
Bit depth                      : 8 bits
Scan type                      : Progressive
Bits/(Pixel*Frame)             : 0.168
Stream size                    : 170 MiB (96%)
Color range                    : Limited
Color primaries                : BT.709
Transfer characteristics       : BT.709
Matrix coefficients            : BT.709
Codec configuration box        : avcC

Audio
ID                             : 2
Format                         : AAC LC
Format/Info                    : Advanced Audio Codec Low Complexity
Codec ID                       : mp4a-40-2
Duration                       : 3 min 37 s
Duration_LastFrame             : -7 ms
Bit rate mode                  : Constant
Bit rate                       : 249 kb/s
Channel(s)                     : 2 channels
Channel layout                 : L R
Sampling rate                  : 48.0 kHz
Frame rate                     : 46.875 FPS (1024 SPF)
Compression mode               : Lossy
Stream size                    : 6.46 MiB (4%)
Default                        : Yes
Alternate group                : 1

</pre>
</div>
<div class="bbCodeBlock bbCodeVfcHH HiddenContent">
<div class="attribution type">Hidden Content:</div>
<blockquote>You must either reply or click 'Like' to see the hidden information contained here.</blockquote>
</div>
<div class="messageTextEndMarker">&nbsp;</div>
</blockquote>
</article>]]></description>
                <author><![CDATA[vitalya3]]></author>
                </item>

                </channel></rss>